:SAMPLES-PER-SECOND 30
:FULLY-SPECIFIED
:DEGREES
514
root  -16.612 37.18 -3.23048 -10.5426 -86.9759 4.69617
RightUpLeg  -15.6804 8.76618 1.59446
RightLeg  46.4803 -8.99945 -10.2976
RightFoot  -15.6245 0.107537 5.4328
RightToes  -5.28226e-011 1.30204e-014 -6.03759e-014
Spine  7.24195 -3.44832 0.0261941
Spine1  -5.52188 -3.49529 -0.506803
HEad  6.39546 12.5595 -6.99768
LeftShoulder1  3.15347 -8.91931 -18.8791
LeftArm  43.0442 -21.683 -78.8892
LeftForeArm  39.6656 -55.7929 -13.3251
LeftHand  -0.126436 -7.40845 1.33993
RightShoulder  1.40495 2.93188 15.0577
RightArm  60.8455 17.2802 84.0514
RightForeArm  33.1743 26.5529 5.40585
RightHand  -0.47604 1.01825 -8.46588
LeftUpLeg  -13.2483 -5.33559 1.96472
LeftLeg  51.3305 -8.9535 -11.3329
LeftFoot  -15.4287 -0.213014 -8.19838
LeftToes  -2.42178e-010 -1.66495e-011 -2.88221e-011
515
root  -16.6338 36.5041 -3.23792 -129.718 -86.5728 123.372
RightUpLeg  -16.5131 13.2923 2.0072
RightLeg  49.1434 -7.20825 -9.19065
RightFoot  -19.6186 0.176434 4.21859
RightToes  -5.28226e-011 1.30204e-014 -6.03759e-014
Spine  7.97871 -2.28297 0.802308
Spine1  -3.82027 -2.4319 0.688672
HEad  3.18277 14.8243 -9.54936
LeftShoulder1  3.43875 -8.91595 -21.3382
LeftArm  50.5095 -17.3033 -75.2698
LeftForeArm  14.9892 -36.2597 -6.80608
LeftHand  0.0875509 -6.08991 -0.439536
RightShoulder  1.80898 3.44709 19.6974
RightArm  49.5139 11.3933 74.2683
RightForeArm  33.0016 11.2251 12.8976
RightHand  -0.18981 -1.61598 -6.26422
LeftUpLeg  -14.199 -10.6012 4.85509
LeftLeg  57.5514 -15.8306 -24.4494
LeftFoot  -16.568 -0.456059 -12.3185
LeftToes  -2.42178e-010 -1.66495e-011 -2.88221e-011
516
root  -16.6806 36.1128 -3.17709 -164.009 -84.4991 157.913
RightUpLeg  -17.812 15.8594 2.28451
RightLeg  51.1485 -7.00434 -9.59596
RightFoot  -20.972 0.171815 3.71955
RightToes  -5.28226e-011 1.30204e-014 -6.03759e-014
Spine  8.65412 -3.34002 -0.342689
Spine1  -3.54688 -3.95002 4.38162
HEad  0.0797383 20.0836 -11.7921
LeftShoulder1  3.38646 -8.18669 -22.6961
LeftArm  46.8348 -13.0456 -67.3733
LeftForeArm  -3.32614 -16.5886 -7.89207
LeftHand  -0.120234 -0.426915 2.74843
RightShoulder  1.75561 2.93021 20.9829
RightArm  4.85432 4.04143 58.9695
RightForeArm  47.9551 -2.52017 16.2398
RightHand  -0.0232083 -5.53205 -10.2405
LeftUpLeg  -17.1392 -15.1154 6.88624
LeftLeg  62.7257 -17.4946 -31.9873
LeftFoot  -13.5226 -0.25456 -18.3217
LeftToes  -2.42178e-010 -1.66495e-011 -2.88221e-011
517
root  -16.7736 36.0525 -3.06132 -165.12 -82.1597 159.611
RightUpLeg  -18.6706 18.3286 1.89585
RightLeg  51.6947 -7.49176 -10.4088
RightFoot  -21.323 0.142832 3.29313
RightToes  -5.28226e-011 1.30204e-014 -6.03759e-014
Spine  9.61133 -5.91152 -1.26569
Spine1  -4.76562 -6.7006 6.29479
HEad  -2.45009 27.7815 -12.8465
LeftShoulder1  2.94907 -6.68227 -22.6696
LeftArm  -1.18076 -5.82035 -53.5678
LeftForeArm  13.9585 4.35654 -16.6062
LeftHand  -0.0363469 5.23716 7.26697
RightShoulder  1.41881 1.96528 19.5618
RightArm  -13.5284 -2.32241 45.3476
RightForeArm  34.7512 -4.2463 12.9661
RightHand  -0.00441753 -5.45825 -16.8821
LeftUpLeg  -20.9701 -16.7085 7.95171
LeftLeg  65.9952 -12.5838 -27.5427
LeftFoot  -7.05448 0.885841 -22.5047
LeftToes  -2.42178e-010 -1.66495e-011 -2.88221e-011
518
root  -16.8936 36.366 -2.88228 -166.573 -77.0557 161.709
RightUpLeg  -19.0298 22.0007 0.288604
RightLeg  50.0294 -6.89496 -9.10569
RightFoot  -20.6996 0.0583626 2.41744
RightToes  -5.28226e-011 1.30204e-014 -6.03759e-014
Spine  9.85286 -7.26135 -0.384986
Spine1  -5.51254 -7.62429 4.13467
HEad  -4.5522 34.2917 -13.0157
LeftShoulder1  2.08956 -4.21859 -20.596
LeftArm  -17.4013 6.82194 -41.3351
LeftForeArm  -4.18278 8.00448 -10.6011
LeftHand  0.315402 8.83261 11.6743
RightShoulder  1.07073 1.06546 16.8544
RightArm  -18.964 -4.00052 33.7509
RightForeArm  8.57692 -3.97019 10.4079
RightHand  -0.101392 -4.83178 -18.3139
LeftUpLeg  -23.9323 -15.1277 8.2348
LeftLeg  69.9645 -5.90458 -16.6629
LeftFoot  0.650319 2.55282 -24.0663
LeftToes  -2.42178e-010 -1.66495e-011 -2.88221e-011
519
root  -17.0167 37.0071 -2.62009 -167.399 -68.8874 163.183
RightUpLeg  -19.3959 25.8729 -2.77248
RightLeg  46.0914 -4.36528 -5.21328
RightFoot  -18.5565 -0.0697792 0.836809
RightToes  -5.28226e-011 1.30204e-014 -6.03759e-014
Spine  9.29171 -5.81528 2.20204
Spine1  -5.77118 -5.27713 -1.51832
HEad  -5.83644 37.1176 -12.5844
LeftShoulder1  1.00228 -0.87206 -15.9962
LeftArm  -24.7341 17.8642 -32.5376
LeftForeArm  -29.0667 6.06854 -5.38535
LeftHand  0.723437 10.7453 16.2297
RightShoulder  0.663618 -0.0990752 12.3763
RightArm  -23.5453 -3.32135 23.7471
RightForeArm  -17.1015 -5.29667 7.23241
RightHand  0.186286 -6.63596 -17.8216
LeftUpLeg  -25.9735 -12.9853 8.10159
LeftLeg  76.6281 -2.50097 -11.3585
LeftFoot  7.48547 4.17313 -25.0782
LeftToes  -2.42178e-010 -1.66495e-011 -2.88221e-011
520
root  -17.1392 37.8154 -2.29907 -167.21 -60.249 163.416
RightUpLeg  -19.6853 28.2095 -6.40414
RightLeg  41.0079 -0.756319 -0.992596
RightFoot  -15.1739 -0.136802 -1.02012
RightToes  -5.28226e-011 1.30204e-014 -6.03759e-014
Spine  9.69877 -2.74749 5.43176
Spine1  -7.7064 -1.23383 -8.61431
HEad  -5.04888 37.3668 -11.0178
LeftShoulder1  0.0731367 3.11128 -9.13473
LeftArm  -28.1938 23.0875 -25.3854
LeftForeArm  -48.4533 4.65257 -1.3626
LeftHand  0.971655 11.4011 18.9557
RightShoulder  0.250633 -1.72179 6.39116
RightArm  -25.9302 -2.16802 15.1246
RightForeArm  -30.6487 -6.14662 5.01339
RightHand  0.35337 -7.4019 -21.8023
LeftUpLeg  -27.9875 -13.3811 7.70291
LeftLeg  85.6325 -0.807036 -15.2022
LeftFoot  12.8997 5.48171 -25.5704
LeftToes  -2.42178e-010 -1.66495e-011 -2.88221e-011
521
root  -17.2467 38.5594 -1.92654 -167.516 -53.2419 163.654
RightUpLeg  -19.3375 28.5032 -8.77335
RightLeg  36.3986 1.34786 0.834914
RightFoot  -11.5506 -0.0836169 -2.40306
RightToes  -5.28226e-011 1.30204e-014 -6.03759e-014
Spine  11.9402 0.129843 8.6105
Spine1  -11.749 2.2418 -14.9576
HEad  -1.90628 37.0984 -8.32084
LeftShoulder1  -0.346852 7.37126 -0.703801
LeftArm  -29.1569 22.1875 -18.6708
LeftForeArm  -59.989 3.77455 0.740997
LeftHand  1.12345 11.9078 20.1436
RightShoulder  0.0420853 -3.01024 0.904277
RightArm  -25.9763 0.0302524 6.3329
RightForeArm  -29.7005 -5.54577 4.88926
RightHand  -0.141588 -4.66064 -23.621
LeftUpLeg  -30.1991 -16.6586 7.62281
LeftLeg  96.3037 2.80267 -20.5227
LeftFoot  17.6527 6.47126 -25.0859
LeftToes  -2.42178e-010 -1.66495e-011 -2.88221e-011
522
root  -17.3154 39.1936 -1.55166 -168.613 -47.615 164.243
RightUpLeg  -17.8985 26.9462 -9.24777
RightLeg  32.0742 0.324088 0.000500021
RightFoot  -8.24526 0.0426354 -3.60449
RightToes  -5.28226e-011 1.30204e-014 -6.03759e-014
Spine  14.5765 2.72584 11.1116
Spine1  -15.4378 5.07292 -19.2813
HEad  2.08354 36.3747 -5.61204
LeftShoulder1  -0.14177 11.1427 7.63849
LeftArm  -30.7014 16.7455 -12.7877
LeftForeArm  -62.6463 3.59911 1.77855
LeftHand  0.952562 10.7909 20.5045
RightShoulder  -0.000600844 -3.51202 -3.4282
RightArm  -25.8621 3.46184 -3.09002
RightForeArm  -29.9539 -2.63023 5.56088
RightHand  -0.302704 -3.6963 -19.0706
LeftUpLeg  -32.1247 -20.6065 8.76598
LeftLeg  107.517 7.35195 -20.7539
LeftFoot  24.4535 8.60635 -26.6565
LeftToes  -2.42178e-010 -1.66495e-011 -2.88221e-011
523
root  -17.3463 39.6766 -1.20817 -169.876 -42.2712 164.896
RightUpLeg  -15.9835 24.1959 -9.01397
RightLeg  27.5916 -1.6099 -1.15927
RightFoot  -6.03644 0.197637 -5.16677
RightToes  -5.28226e-011 1.30204e-014 -6.03759e-014
Spine  16.1212 5.74227 13.1502
Spine1  -16.8179 8.42997 -22.1346
HEad  5.0975 34.4529 -3.83908
LeftShoulder1  0.365826 13.5474 13.8872
LeftArm  -34.8019 9.19618 -7.32661
LeftForeArm  -60.2508 2.59099 2.56756
LeftHand  0.503445 8.64631 18.4586
RightShoulder  0.000430611 -3.58609 -7.84022
RightArm  -29.4122 6.78241 -11.3116
RightForeArm  -40.1907 2.60141 4.50652
RightHand  -0.101082 -4.83011 -16.3031
LeftUpLeg  -33.8194 -23.5223 11.422
LeftLeg  118.333 11.6527 -19.4497
LeftFoot  32.2616 11.4472 -28.6954
LeftToes  -2.42178e-010 -1.66495e-011 -2.88221e-011
